# xmcd
#
# Track frame offsets:
#	150
#	21575
#	37742
#	61242
#	82637
#	101372
#	120495
#	136855
#	150937
#	169910
#
# Disc length: 2492 seconds
#
# Revision: 2
# Processed by: cddbd v1.5.1PL0 Copyright (c) Steve Scherf et al.
# Submitted via: audiograbber 1.83.01
#
DISCID=6709ba0a
DTITLE=Various Artist - Dancin' With Thunder - Pbr
DYEAR=2001
DGENRE=Country
TTITLE0=Toby Keith - Gimme Eight Seconds
TTITLE1=Wild Horses - I Will Survive
TTITLE2=Montgomery Gentry - Wanted Dead Or Alive
TTITLE3=Jewel - 'Til We Run Out Of Road
TTITLE4=Stevie Ray Vaughan And Double Trouble - Crossfire
TTITLE5=The Charlie Daniels Band - Bull Ridin' Son Of A Gun
TTITLE6=David Lee Murphy - Hangin' On
TTITLE7=Jack Ingram - Rank Bull
TTITLE8=Deryl Dodd - One Ride In Vegas
TTITLE9=Billy Ray Cyrus - Let's Go To The PBR
EXTD=
EXTT0=
EXTT1=
EXTT2=
EXTT3=
EXTT4=
EXTT5=
EXTT6=
EXTT7=
EXTT8=
EXTT9=
PLAYORDER=
